grf
version=1
nRows=11
nColumns=37
inDegrees=no
endheader
time	ground_force_1_vx	ground_force_1_vy	ground_force_1_vz	ground_force_1_px	ground_force_1_py	ground_force_1_pz	ground_moment_1_mx	ground_moment_1_my	ground_moment_1_mz	ground_force_2_vx	ground_force_2_vy	ground_force_2_vz	ground_force_2_px	ground_force_2_py	ground_force_2_pz	ground_moment_2_mx	ground_moment_2_my	ground_moment_2_mz	ground_force_3_vx	ground_force_3_vy	ground_force_3_vz	ground_force_3_px	ground_force_3_py	ground_force_3_pz	ground_moment_3_mx	ground_moment_3_my	ground_moment_3_mz	ground_force_4_vx	ground_force_4_vy	ground_force_4_vz	ground_force_4_px	ground_force_4_py	ground_force_4_pz	ground_moment_4_mx	ground_moment_4_my	ground_moment_4_mz
      1.86000000	      0.00000000	     -0.00000000	      0.00000000	      0.00000000	      0.00000000	      0.00000000	      0.00000000	      0.00000000	      0.00000000	    -10.39514923	     64.17388916	   -464.53253174	   -242.55520812	  -1038.45394008	      0.00000000	      0.00000000	      0.00000000	    644.21172943	     -5.41136004	    -24.73396063	   -458.15499878	   -312.74563030	   -733.18428634	      0.00000000	     -0.00000000	     -0.00000000	  -3109.73964183	      0.00000000	     -0.00000000	      0.00000000	      0.00000000	      0.00000000	      0.00000000	      0.00000000	      0.00000000	      0.00000000
      1.87000000	      0.00000000	     -0.00000000	      0.00000000	      0.00000000	      0.00000000	      0.00000000	      0.00000000	      0.00000000	      0.00000000	    -10.25449371	     61.24427032	   -444.83944702	   -240.33275617	  -1039.88399444	      0.00000000	      0.00000000	      0.00000000	    590.49153499	     -3.14705034	    -26.76147052	   -477.43902588	   -312.43953046	   -733.56395716	      0.00000000	      0.00000000	     -0.00000000	  -3180.16388955	      0.00000000	     -0.00000000	      0.00000000	      0.00000000	      0.00000000	      0.00000000	      0.00000000	      0.00000000	      0.00000000
      1.88000000	      0.00000000	     -0.00000000	      0.00000000	      0.00000000	      0.00000000	      0.00000000	      0.00000000	      0.00000000	      0.00000000	    -10.54783058	     58.24409866	   -421.11514282	   -237.46983720	  -1038.87578263	      0.00000000	      0.00000000	      0.00000000	    314.35864378	     -1.71135926	    -28.63708672	   -497.37612915	   -312.48489756	   -732.55235444	      0.00000000	      0.00000000	     -0.00000000	  -3084.55159691	      0.00000000	     -0.00000000	      0.00000000	      0.00000000	      0.00000000	      0.00000000	      0.00000000	      0.00000000	      0.00000000
      1.89000000	      0.00000000	     -0.00000000	      0.00000000	      0.00000000	      0.00000000	      0.00000000	      0.00000000	      0.00000000	      0.00000000	     -9.87583256	     55.51300430	   -396.99661255	   -234.07547161	  -1039.82464335	      0.00000000	      0.00000000	      0.00000000	    436.09016537	     -0.90267402	    -31.32816688	   -512.45172119	   -311.59587123	   -732.35598789	      0.00000000	      0.00000000	     -0.00000000	  -3055.51061816	      0.00000000	     -0.00000000	      0.00000000	      0.00000000	      0.00000000	      0.00000000	      0.00000000	      0.00000000	      0.00000000
      1.90000000	      0.00000000	     -0.00000000	      0.00000000	      0.00000000	      0.00000000	      0.00000000	      0.00000000	      0.00000000	      0.00000000	    -10.08078766	     52.77130127	   -372.19360352	   -231.06077579	  -1039.45231731	      0.00000000	      0.00000000	      0.00000000	    197.04452031	     -1.59679712	    -34.16557298	   -527.93981934	   -311.57450091	   -730.97266068	      0.00000000	      0.00000000	     -0.00000000	  -2893.34683257	      0.00000000	     -0.00000000	      0.00000000	      0.00000000	      0.00000000	      0.00000000	      0.00000000	      0.00000000	      0.00000000
      1.91000000	      0.00000000	     -0.00000000	      0.00000000	      0.00000000	      0.00000000	      0.00000000	      0.00000000	      0.00000000	      0.00000000	    -10.05355835	     48.45973587	   -349.78195190	   -227.14443839	  -1040.69223799	      0.00000000	      0.00000000	     -0.00000000	    139.71175084	     -1.69991892	    -36.12357315	   -544.22180176	   -311.59467762	   -730.74390272	      0.00000000	      0.00000000	     -0.00000000	  -2658.30805221	      0.00000000	     -0.00000000	      0.00000000	      0.00000000	      0.00000000	      0.00000000	      0.00000000	      0.00000000	      0.00000000
      1.92000000	      0.00000000	     -0.00000000	      0.00000000	      0.00000000	      0.00000000	      0.00000000	      0.00000000	      0.00000000	      0.00000000	    -10.58200073	     45.92268372	   -323.10617065	   -222.98738244	  -1037.91434755	      0.00000000	      0.00000000	      0.00000000	   -228.02680705	     -1.33066505	    -37.44174946	   -562.40258789	   -311.48551094	   -730.45290034	      0.00000000	      0.00000000	     -0.00000000	  -2650.30968857	      0.00000000	     -0.00000000	      0.00000000	      0.00000000	      0.00000000	      0.00000000	      0.00000000	      0.00000000	      0.00000000
      1.93000000	      0.00000000	     -0.00000000	      0.00000000	      0.00000000	      0.00000000	      0.00000000	      0.00000000	      0.00000000	      0.00000000	    -10.19044209	     42.47435379	   -300.36480713	   -217.83567549	  -1036.95285234	      0.00000000	      0.00000000	     -0.00000000	   -218.07382725	     -1.46019431	    -37.78136431	   -581.81939697	   -311.99780947	   -731.68389795	      0.00000000	      0.00000000	     -0.00000000	  -2713.18888055	      0.00000000	     -0.00000000	      0.00000000	      0.00000000	      0.00000000	      0.00000000	      0.00000000	      0.00000000	      0.00000000
      1.94000000	      0.00000000	     -0.00000000	      0.00000000	      0.00000000	      0.00000000	      0.00000000	      0.00000000	      0.00000000	      0.00000000	    -10.06047726	     40.12101364	   -281.00198364	   -213.81277479	  -1040.48142356	      0.00000000	      0.00000000	     -0.00000000	   -304.95080916	     -0.98342643	    -37.21118918	   -603.84271240	   -312.69290274	   -731.63480462	      0.00000000	      0.00000000	     -0.00000000	  -2779.49298561	      0.00000000	     -0.00000000	      0.00000000	      0.00000000	      0.00000000	      0.00000000	      0.00000000	      0.00000000	      0.00000000
      1.95000000	      0.00000000	     -0.00000000	      0.00000000	      0.00000000	      0.00000000	      0.00000000	      0.00000000	      0.00000000	      0.00000000	     -9.29808712	     36.91173935	   -260.69335938	   -208.69433227	  -1040.42753325	      0.00000000	      0.00000000	     -0.00000000	   -204.62002142	     -0.11694254	    -36.70971297	   -624.36242676	   -313.63032764	   -732.45949059	      0.00000000	      0.00000000	     -0.00000000	  -2790.53627818	      0.00000000	     -0.00000000	      0.00000000	      0.00000000	      0.00000000	      0.00000000	      0.00000000	      0.00000000	      0.00000000
      1.96000000	      0.00000000	     -0.00000000	      0.00000000	      0.00000000	      0.00000000	      0.00000000	      0.00000000	      0.00000000	      0.00000000	     -8.76042652	     34.31520844	   -239.49122620	   -203.69161310	  -1038.73836494	      0.00000000	      0.00000000	     -0.00000000	    -61.81912055	      1.43941472	    -35.67049802	   -647.16937256	   -314.61388462	   -732.15498047	      0.00000000	     -0.00000000	     -0.00000000	  -2991.83297526	      0.00000000	     -0.00000000	      0.00000000	      0.00000000	      0.00000000	      0.00000000	      0.00000000	      0.00000000	      0.00000000
